<svg xmlns="http://www.w3.org/2000/svg" width="45.867" height="51.01" viewBox="0 0 45.867 51.01">
  <path id="certification" d="M37.9,25.966a.823.823,0,0,1,.823-.823H62.334a.823.823,0,0,1,0,1.646H38.726A.823.823,0,0,1,37.9,25.966Zm.823-8.433H56.8a.823.823,0,1,0,0-1.645H38.726a.823.823,0,1,0,0,1.645Zm0,4.628H62.334a.823.823,0,0,0,0-1.646H38.726a.823.823,0,1,0,0,1.646Zm0,9.256H62.334a.823.823,0,0,0,0-1.645H38.726a.823.823,0,1,0,0,1.645ZM77.788,44.291a1.293,1.293,0,0,0-.139.789l.2,1.65a3.009,3.009,0,0,1-1.816,3.145l-.878.376,2.384,5.121a1.019,1.019,0,0,1-1.1,1.434l-2.415-.422L72.79,58.5a1.016,1.016,0,0,1-.881.507h-.047a1.015,1.015,0,0,1-.878-.589L68.646,53.4l-.67-.2a1.294,1.294,0,0,0-.8,0l-.67.2-2.339,5.023a1.016,1.016,0,0,1-.878.588h-.047a1.016,1.016,0,0,1-.88-.507l-1.232-2.12-2.415.422a1.019,1.019,0,0,1-1.1-1.435l.7-1.5h-23.6A1.716,1.716,0,0,1,33,52.155V9.714A1.716,1.716,0,0,1,34.715,8H62.047a1.7,1.7,0,0,1,.677.137.816.816,0,0,1,.091.043,1.724,1.724,0,0,1,.444.322l5.006,5.006a1.723,1.723,0,0,1,.322.444.819.819,0,0,1,.043.091,1.7,1.7,0,0,1,.137.677v17a3.085,3.085,0,0,1,.624.361l1.33,1a1.292,1.292,0,0,0,.753.274l1.659.092a3.009,3.009,0,0,1,2.782,2.335l.379,1.618a1.292,1.292,0,0,0,.4.694l1.211,1.137a3.009,3.009,0,0,1,.631,3.577ZM63.239,10.809v2.719h2.719ZM59.081,52.224,60,50.251l-.878-.376a3.009,3.009,0,0,1-1.816-3.145l.171-1.428H38.726a.823.823,0,1,1,0-1.646H57.042l-.428-.848a3.016,3.016,0,0,1-.227-2.153l-17.66.018h0a.823.823,0,0,1,0-1.646l18.756-.019.974-.914a1.293,1.293,0,0,0,.4-.694l.318-1.356H38.726a.823.823,0,0,1,0-1.646H59.973a3.013,3.013,0,0,1,2.044-.951l1.659-.092a1.291,1.291,0,0,0,.753-.274l1.33-1a3.038,3.038,0,0,1,1.363-.574V15.174h-4.26a1.27,1.27,0,0,1-1.268-1.269V9.645H34.715a.071.071,0,0,0-.069.069V52.155a.071.071,0,0,0,.069.069H59.081ZM64.5,53.8a3.006,3.006,0,0,1-2.331-1.366l-.8-1.227-1.756,3.771,1.8-.314a.823.823,0,0,1,.853.4l.917,1.578Zm11.035,1.178-1.756-3.771-.8,1.227a3.008,3.008,0,0,1-2.33,1.368l1.321,2.837.917-1.578a.823.823,0,0,1,.853-.4Zm1.243-14.547-1.211-1.137a2.94,2.94,0,0,1-.877-1.518l-.379-1.618a1.358,1.358,0,0,0-1.272-1.067L71.383,35a2.941,2.941,0,0,1-1.648-.6l-1.33-1a1.358,1.358,0,0,0-1.66,0l-1.33,1a2.94,2.94,0,0,1-1.648.6l-1.659.092a1.358,1.358,0,0,0-1.271,1.067l-.379,1.618a2.94,2.94,0,0,1-.876,1.518L58.37,40.431a1.358,1.358,0,0,0-.288,1.635l.749,1.483a3.04,3.04,0,0,1,.256.712.836.836,0,0,1,.018.085,3,3,0,0,1,.03.929l-.2,1.65a1.358,1.358,0,0,0,.83,1.438l1.527.654a2.942,2.942,0,0,1,1.343,1.127l.909,1.391a1.358,1.358,0,0,0,1.56.568l1.59-.481a2.941,2.941,0,0,1,1.753,0l1.59.481a1.358,1.358,0,0,0,1.56-.568l.909-1.39a2.942,2.942,0,0,1,1.343-1.127l1.527-.654a1.358,1.358,0,0,0,.83-1.438l-.2-1.65a2.942,2.942,0,0,1,.3-1.727l.75-1.483a1.358,1.358,0,0,0-.288-1.634Zm-2.257,2.211a6.948,6.948,0,1,1-6.948-6.948,6.956,6.956,0,0,1,6.948,6.948Zm-1.646,0a5.3,5.3,0,1,0-5.3,5.3A5.309,5.309,0,0,0,72.878,42.642ZM69.843,40.22l-3.416,3.1-1.091-1.091a.823.823,0,0,0-1.164,1.163l1.645,1.645a.823.823,0,0,0,1.135.027l4-3.626a.823.823,0,0,0-1.106-1.218Z" transform="translate(-33.001 -8)" fill="#fff"/>
</svg>
