<svg xmlns="http://www.w3.org/2000/svg" width="111.948" height="75.665" viewBox="0 0 111.948 75.665">
  <g id="Group_47043" data-name="Group 47043" transform="translate(0.996 14.567)">
    <g id="Ellipse_121" data-name="Ellipse 121" transform="translate(47.956 -14.567)" fill="#fff" stroke="#08558c" stroke-width="2">
      <ellipse cx="7.85" cy="4.5" rx="7.85" ry="4.5" stroke="none"/>
      <ellipse cx="7.85" cy="4.5" rx="6.85" ry="3.5" fill="none"/>
    </g>
    <rect id="Rectangle_9" data-name="Rectangle 9" width="2" height="26.694" rx="1" transform="translate(54.956 -11)" fill="#08558c"/>
    <path id="Path_76" data-name="Path 76" d="M1049.559,4399.151s-25.909-14.019-29.488-14.82-9.15.392-11.749,9.337,3.347,9.841,7.438,10.559,33.151,4.792,33.151,4.792" transform="translate(-1007.686 -4373.71)" fill="none" stroke="#08558c" stroke-width="2"/>
    <path id="Path_80" data-name="Path 80" d="M1007.686,4399.151s25.91-14.019,29.489-14.82,9.15.392,11.749,9.337-3.348,9.841-7.439,10.559-33.151,4.792-33.151,4.792" transform="translate(-939.603 -4373.71)" fill="none" stroke="#08558c" stroke-width="2"/>
    <path id="Path_78" data-name="Path 78" d="M1045.247,4403.133l-3.469,14.679s-1.7,4.942,4.4,5.327,13.157,0,13.157,0,6.1.017,4.639-5.327c-1.492-5.4-4.061-14.679-4.061-14.679" transform="translate(-997.1 -4363.232)" fill="none" stroke="#08558c" stroke-width="2"/>
    <g id="Path_79" data-name="Path 79" transform="translate(42.381 13.516)" fill="#fff">
      <path d="M 13.05557727813721 23.64735794067383 C 9.824586868286133 23.64735794067383 6.789817333221436 22.46235656738281 4.510317325592041 20.31063652038574 C 2.246657371520996 18.17387771606445 0.9999972581863403 15.33738708496094 0.9999972581863403 12.32367706298828 C 0.9999972581863403 9.309967041015625 2.246657371520996 6.473476886749268 4.510317325592041 4.336717128753662 C 6.789817333221436 2.184997081756592 9.824586868286133 0.999997079372406 13.05557727813721 0.999997079372406 C 16.28656768798828 0.999997079372406 19.32133674621582 2.184997081756592 21.60083770751953 4.336717128753662 C 23.86449813842773 6.473476886749268 25.11115646362305 9.309967041015625 25.11115646362305 12.32367706298828 C 25.11115646362305 15.33738708496094 23.86449813842773 18.17387771606445 21.60083770751953 20.31063652038574 C 19.32133674621582 22.46235656738281 16.28656768798828 23.64735794067383 13.05557727813721 23.64735794067383 Z" stroke="none"/>
      <path d="M 13.05557727813721 1.999996185302734 C 6.959506988525391 1.999996185302734 1.999998092651367 6.63117790222168 1.999998092651367 12.32367706298828 C 1.999998092651367 18.01617813110352 6.959506988525391 22.64735794067383 13.05557727813721 22.64735794067383 C 19.15164756774902 22.64735794067383 24.11115646362305 18.01617813110352 24.11115646362305 12.32367706298828 C 24.11115646362305 6.63117790222168 19.15164756774902 1.999996185302734 13.05557727813721 1.999996185302734 M 13.05557727813721 -3.814697265625e-06 C 20.26597785949707 -3.814697265625e-06 26.11115646362305 5.517498016357422 26.11115646362305 12.32367706298828 C 26.11115646362305 19.12985610961914 20.26597785949707 24.64735794067383 13.05557727813721 24.64735794067383 C 5.845176696777344 24.64735794067383 -1.9073486328125e-06 19.12985610961914 -1.9073486328125e-06 12.32367706298828 C -1.9073486328125e-06 5.517498016357422 5.845176696777344 -3.814697265625e-06 13.05557727813721 -3.814697265625e-06 Z" stroke="none" fill="#08558c"/>
    </g>
    <g id="Path_75" data-name="Path 75" transform="translate(37.559 18.713)" fill="#fff">
      <path d="M 17.82986450195312 22.08370590209961 C 13.26625442504883 22.08370590209961 8.98884391784668 20.88089561462402 5.785584449768066 18.69685554504395 C 2.699554443359375 16.59274482727051 1.000004291534424 13.83334541320801 1.000004291534424 10.92697525024414 C 1.000004291534424 8.193855285644531 2.525184392929077 6.213805675506592 5.662694454193115 4.87367582321167 C 8.547654151916504 3.641415596008301 12.67334461212158 3.016605615615845 17.92514419555664 3.016605615615845 C 23.16647529602051 3.016605615615845 27.27530479431152 3.64106559753418 30.13751411437988 4.872625827789307 C 33.24460601806641 6.20956563949585 34.7550048828125 8.189955711364746 34.7550048828125 10.92697525024414 C 34.7550048828125 13.82796573638916 33.03953552246094 16.58668518066406 29.92461395263672 18.6949348449707 C 26.69587516784668 20.88021469116211 22.40054512023926 22.08370590209961 17.82986450195312 22.08370590209961 Z" stroke="none"/>
      <path d="M 17.92514419555664 4.016605377197266 C 12.80911445617676 4.016605377197266 8.815593719482422 4.614376068115234 6.05549430847168 5.793294906616211 C 4.683794021606445 6.379196166992188 3.650283813476562 7.102886199951172 2.983673095703125 7.944265365600586 C 2.321765899658203 8.779716491699219 2.000003814697266 9.755365371704102 2.000003814697266 10.92697525024414 C 2.000003814697266 13.49253559112549 3.544483184814453 15.95850563049316 6.34892463684082 17.87062454223633 C 7.810754776000977 18.86733627319336 9.524944305419922 19.65329551696777 11.4438648223877 20.20668601989746 C 13.46182441711426 20.78863525390625 15.61038398742676 21.08370590209961 17.82986450195312 21.08370590209961 C 20.0507640838623 21.08370590209961 22.20505523681641 20.78842544555664 24.23288345336914 20.2060661315918 C 26.16345405578613 19.65164566040039 27.88984489440918 18.86459541320801 29.36410522460938 17.86678504943848 C 32.19561386108398 15.95035552978516 33.7550048828125 13.48574542999268 33.7550048828125 10.92697525024414 C 33.7550048828125 9.463475227355957 33.33903503417969 7.338834762573242 29.74226379394531 5.791194915771484 C 27.00562477111816 4.613666534423828 23.0297737121582 4.016605377197266 17.92514419555664 4.016605377197266 M 17.92514419555664 2.016605377197266 C 27.77230453491211 2.016605377197266 35.7550048828125 4.213005065917969 35.7550048828125 10.92697525024414 C 35.7550048828125 17.64095497131348 27.67702484130859 23.08370590209961 17.82986450195312 23.08370590209961 C 7.982704162597656 23.08370590209961 3.814697265625e-06 17.64095497131348 3.814697265625e-06 10.92697525024414 C 3.814697265625e-06 4.213005065917969 8.077983856201172 2.016605377197266 17.92514419555664 2.016605377197266 Z" stroke="none" fill="#08558c"/>
    </g>
  </g>
</svg>
