<svg xmlns="http://www.w3.org/2000/svg" width="56.785" height="60.204" viewBox="0 0 56.785 60.204">
  <g id="gear" transform="translate(-5.198 -2.5)">
    <path id="Path_94171" data-name="Path 94171" d="M42.407,58.206H36.221a.813.813,0,0,1-.806-.7l-.808-5.908a13.424,13.424,0,0,1-4.037-2.348l-5.54,2.262a.813.813,0,0,1-1.013-.347l-3.085-5.355a.814.814,0,0,1,.206-1.049l4.71-3.654a13.883,13.883,0,0,1,0-4.68l-4.71-3.654a.814.814,0,0,1-.206-1.049l3.085-5.355a.814.814,0,0,1,1.013-.347l5.54,2.262a13.424,13.424,0,0,1,4.037-2.348l.808-5.908a.813.813,0,0,1,.806-.7h6.187a.813.813,0,0,1,.806.7l.808,5.908a13.424,13.424,0,0,1,4.037,2.348l5.54-2.262a.813.813,0,0,1,1.013.347l3.085,5.355a.814.814,0,0,1-.206,1.049l-4.71,3.654a13.883,13.883,0,0,1,0,4.68l4.71,3.654a.814.814,0,0,1,.206,1.049L54.61,51.161a.811.811,0,0,1-1.013.347l-5.54-2.262a13.424,13.424,0,0,1-4.037,2.348L43.213,57.5A.813.813,0,0,1,42.407,58.206Zm-5.477-1.627H41.7l.779-5.7a.813.813,0,0,1,.554-.664A11.837,11.837,0,0,0,47.353,47.7a.81.81,0,0,1,.855-.151l5.347,2.183,2.376-4.125-4.543-3.525a.814.814,0,0,1-.3-.81,12.25,12.25,0,0,0,0-5.021.814.814,0,0,1,.3-.81l4.543-3.525-2.376-4.125-5.347,2.183a.814.814,0,0,1-.855-.151,11.837,11.837,0,0,0-4.323-2.514.813.813,0,0,1-.554-.664l-.779-5.7H36.931l-.779,5.7a.813.813,0,0,1-.554.664,11.837,11.837,0,0,0-4.323,2.514.815.815,0,0,1-.855.151l-5.347-2.183L22.7,31.917l4.543,3.525a.814.814,0,0,1,.3.81,12.25,12.25,0,0,0,0,5.021.814.814,0,0,1-.3.81L22.7,45.608l2.376,4.125,5.347-2.183a.811.811,0,0,1,.855.151A11.837,11.837,0,0,0,35.6,50.215a.813.813,0,0,1,.554.664Zm2.383-12.185a5.631,5.631,0,1,1,5.631-5.631A5.638,5.638,0,0,1,39.314,44.394Zm0-9.635a4,4,0,1,0,4,4A4.009,4.009,0,0,0,39.314,34.759Z" transform="translate(-5.723 -6.161)" fill="#fff"/>
    <path id="Path_94172" data-name="Path 94172" d="M64.795,62.057a.814.814,0,0,1-.286-1.576,26.764,26.764,0,0,0,3.029-48.773.814.814,0,0,1,.755-1.441A28.391,28.391,0,0,1,65.08,62a.813.813,0,0,1-.286.052Z" transform="translate(-21.531 -2.811)" fill="#fff"/>
    <path id="Path_94173" data-name="Path 94173" d="M20.8,59.841a.812.812,0,0,1-.377-.093A28.391,28.391,0,0,1,23.631,8.009.814.814,0,0,1,24.2,9.533a26.764,26.764,0,0,0-3.029,48.773.814.814,0,0,1-.378,1.534Z" transform="translate(0 -1.999)" fill="#fff"/>
    <path id="Path_94174" data-name="Path 94174" d="M62.769,10.974a4.237,4.237,0,1,1,4.237-4.237A4.242,4.242,0,0,1,62.769,10.974Zm0-6.847a2.61,2.61,0,1,0,2.61,2.61A2.613,2.613,0,0,0,62.769,4.127Z" transform="translate(-19.535)" fill="#fff"/>
    <path id="Path_94175" data-name="Path 94175" d="M32.334,92.6a4.237,4.237,0,1,1,4.237-4.237A4.242,4.242,0,0,1,32.334,92.6Zm0-6.847a2.61,2.61,0,1,0,2.61,2.61A2.613,2.613,0,0,0,32.334,85.756Z" transform="translate(-8.387 -29.898)" fill="#fff"/>
  </g>
</svg>
