<svg xmlns="http://www.w3.org/2000/svg" width="57.63" height="51.01" viewBox="0 0 57.63 51.01">
  <g id="Group_53380" data-name="Group 53380" transform="translate(14076.748 330.806)">
    <path id="excellence" d="M125.315,36.353a3.774,3.774,0,0,0-2.52-5.267.8.8,0,0,0-.176-.023c-2.234-.039-3.652-.044-5.529-.02a6.872,6.872,0,0,0-.1-7.124,5.2,5.2,0,0,0-3.62-3.009,10.411,10.411,0,0,0-1.766-.076.986.986,0,0,0-.74.387c-.431.552-.4,1.528.132,4.178.044.22.09.448.1.522.27,2.03-1.348,4.292-2.775,6.288l-.364.51a1.749,1.749,0,0,1-1.281.8c-.138.036-.288.075-.45.123v-.673A1.227,1.227,0,0,0,105,31.747H96.433a2.29,2.29,0,0,0-2.288,2.288V48.723a2.29,2.29,0,0,0,2.288,2.288H105a1.227,1.227,0,0,0,1.226-1.226v-.29a4.727,4.727,0,0,0,2.1.489q.124,0,.25-.006h11.65a3.026,3.026,0,0,0,2.827-4.005,3.283,3.283,0,0,0,2.016-4.457,3.382,3.382,0,0,0,.241-5.162ZM104.632,49.417h-8.2a.7.7,0,0,1-.694-.694V34.035a.7.7,0,0,1,.694-.694h8.2ZM124.8,38.942a1.8,1.8,0,0,1-1.123,1.554.8.8,0,0,0-.314,1.253,1.7,1.7,0,0,1-1.557,2.768.8.8,0,0,0-.653,1.381,1.426,1.426,0,0,1-.93,2.487H108.517a3.291,3.291,0,0,1-2.291-.768V35.336a6.1,6.1,0,0,1,.851-.27,3.276,3.276,0,0,0,2.181-1.424l.36-.505c1.6-2.236,3.411-4.77,3.058-7.425-.017-.127-.057-.326-.117-.626a18.234,18.234,0,0,1-.4-2.664,7.522,7.522,0,0,1,.959.063,3.728,3.728,0,0,1,2.474,2.2c.976,1.8,1.265,3.258.005,5.795a1.5,1.5,0,0,0,1.362,2.165c1.91-.025,3.319-.021,5.54.017a2.179,2.179,0,0,1,1.13,3.423.8.8,0,0,0,.248,1.184,1.8,1.8,0,0,1,.925,1.68Zm-.412-30.987a.8.8,0,0,0-.675-.547L116.934,6.7,114.166.473a.8.8,0,0,0-1.457,0L109.941,6.7l-6.777.708a.8.8,0,0,0-.45,1.385l5.066,4.557-1.42,6.664a.8.8,0,0,0,1.178.856l5.9-3.41,5.9,3.41a.8.8,0,0,0,1.178-.856l-1.42-6.664,5.066-4.557a.8.8,0,0,0,.225-.839Zm-6.7,4.519a.8.8,0,0,0-.247.759l1.143,5.362-4.746-2.744a.8.8,0,0,0-.8,0l-4.746,2.744,1.143-5.362a.8.8,0,0,0-.247-.759l-4.076-3.666,5.452-.57a.8.8,0,0,0,.645-.469l2.227-5.009,2.227,5.009a.8.8,0,0,0,.645.469l5.452.57Z" transform="translate(-14161.145 -330.806)" fill="#fff"/>
    <path id="excellence-2" data-name="excellence" d="M118.051,5.658a.567.567,0,0,0-.48-.389l-4.82-.5L110.783.337a.567.567,0,0,0-1.036,0l-1.969,4.429-4.82.5a.567.567,0,0,0-.32.985l3.6,3.241-1.01,4.74a.567.567,0,0,0,.838.609l4.2-2.425,4.2,2.425a.567.567,0,0,0,.838-.609l-1.01-4.74,3.6-3.241a.567.567,0,0,0,.16-.6Zm-4.765,3.214a.567.567,0,0,0-.175.54l.813,3.813-3.376-1.952a.567.567,0,0,0-.567,0l-3.375,1.951.813-3.813a.567.567,0,0,0-.175-.54l-2.9-2.607,3.878-.405a.567.567,0,0,0,.459-.334l1.584-3.563,1.584,3.563a.567.567,0,0,0,.459.334l3.878.405Z" transform="translate(-14137.197 -321.806)" fill="#fff"/>
    <path id="excellence-3" data-name="excellence" d="M118.051,5.658a.567.567,0,0,0-.48-.389l-4.82-.5L110.783.337a.567.567,0,0,0-1.036,0l-1.969,4.429-4.82.5a.567.567,0,0,0-.32.985l3.6,3.241-1.01,4.74a.567.567,0,0,0,.838.609l4.2-2.425,4.2,2.425a.567.567,0,0,0,.838-.609l-1.01-4.74,3.6-3.241a.567.567,0,0,0,.16-.6Zm-4.765,3.214a.567.567,0,0,0-.175.54l.813,3.813-3.376-1.952a.567.567,0,0,0-.567,0l-3.375,1.951.813-3.813a.567.567,0,0,0-.175-.54l-2.9-2.607,3.878-.405a.567.567,0,0,0,.459-.334l1.584-3.563,1.584,3.563a.567.567,0,0,0,.459.334l3.878.405Z" transform="translate(-14179.197 -321.806)" fill="#fff"/>
  </g>
</svg>
