<svg xmlns="http://www.w3.org/2000/svg" width="81.21" height="74.845" viewBox="0 0 81.21 74.845">
  <path id="Union_24" data-name="Union 24" d="M-1921.21,72.559l-27.441-27.311a.841.841,0,0,1-.249-.6.842.842,0,0,1,.249-.6l1.311-1.3-6.247-6.223-3.978,3.947.518.516a3.29,3.29,0,0,1,.987,2.371,3.355,3.355,0,0,1-.987,2.379l-4.582,4.564h0a3.382,3.382,0,0,1-2.388.966h0a3.382,3.382,0,0,1-2.354-.966l-16.573-16.477a3.355,3.355,0,0,1-.99-2.379,3.354,3.354,0,0,1,.99-2.379l4.582-4.564h0a3.383,3.383,0,0,1,2.388-.986,3.382,3.382,0,0,1,2.388.986l.479.477L-1958.8,10.81l-.517-.514a3.357,3.357,0,0,1-.986-2.375,3.357,3.357,0,0,1,.986-2.375l4.582-4.564A3.382,3.382,0,0,1-1952.352,0a3.382,3.382,0,0,1,2.384.982l16.5,16.476a3.358,3.358,0,0,1,.99,2.379,3.357,3.357,0,0,1-.99,2.379l-4.582,4.564a3.381,3.381,0,0,1-2.346.959h0a3.382,3.382,0,0,1-2.355-.959l-.508-.505-3.965,3.934,6.243,6.226,1.276-1.266a.847.847,0,0,1,1.19,0l27.424,27.319h0a7.106,7.106,0,0,1,2.094,5.038,7.108,7.108,0,0,1-2.1,5.036,7.16,7.16,0,0,1-5.059,2.081h-.031A7.109,7.109,0,0,1-1921.21,72.559ZM-1941,50.468l20.987,20.907a5.485,5.485,0,0,0,3.865,1.59,5.487,5.487,0,0,0,3.865-1.59,5.428,5.428,0,0,0,1.6-3.85,5.427,5.427,0,0,0-1.6-3.85l-21-20.894Zm-24.2-1.362a1.743,1.743,0,0,0,2.388,0l4.573-4.556a1.677,1.677,0,0,0,.489-1.185,1.68,1.68,0,0,0-.489-1.186l-1.01-1a.865.865,0,0,1-.131-.106l-11.695-11.65-3.738-3.716a1.692,1.692,0,0,0-2.38,0l-4.557,4.556a1.677,1.677,0,0,0,0,2.371l.008-.009Zm18.361-4.455,4.629,4.611,7.73-7.672-4.63-4.606Zm-5.452-9.18,6.144,6.1,3.978-3.948-6.13-6.107Zm-19.6-9.288,8.15,8.14,4.968,4.952,14.264-14.2L-1957.6,12Zm31.5-.111a1.692,1.692,0,0,0,1.194-.493l4.582-4.565a1.676,1.676,0,0,0,0-2.37l-16.564-16.477a1.692,1.692,0,0,0-1.173-.487h0a1.691,1.691,0,0,0-1.19.487l-4.582,4.556a1.677,1.677,0,0,0-.495,1.19,1.676,1.676,0,0,0,.495,1.189l16.54,16.477h0A1.691,1.691,0,0,0-1940.394,26.071Zm-11.212,46.992h-37.55a.843.843,0,0,1-.844-.841V68.5a3.853,3.853,0,0,1,1.134-2.72,3.88,3.88,0,0,1,2.648-1.129V60.261a4.05,4.05,0,0,1,1.194-2.871,4.081,4.081,0,0,1,2.881-1.189h23.526a4.091,4.091,0,0,1,2.868,1.2,4.06,4.06,0,0,1,1.191,2.862V64.65a3.88,3.88,0,0,1,2.662,1.129,3.851,3.851,0,0,1,1.134,2.72v3.724a.84.84,0,0,1-.247.595.845.845,0,0,1-.6.246Zm-36.066-6.1a2.169,2.169,0,0,0-.64,1.531v2.883h35.863V68.5a2.175,2.175,0,0,0-.64-1.531,2.192,2.192,0,0,0-1.537-.638h-31.509A2.191,2.191,0,0,0-1987.671,66.968Zm3.84-8.388a2.374,2.374,0,0,0-.7,1.682l-.017,4.388h28.3V60.261a2.376,2.376,0,0,0-.7-1.682,2.392,2.392,0,0,0-1.689-.7h-23.51A2.391,2.391,0,0,0-1983.831,58.58Zm33.069,13.643h0Z" transform="translate(1990.1 0.1)" fill="#08558c" stroke="#08558c" stroke-width="0.2"/>
</svg>
