<svg xmlns="http://www.w3.org/2000/svg" width="50.357" height="48.531" viewBox="0 0 50.357 48.531">
  <g id="shopping-cart_1_" data-name="shopping-cart (1)" transform="translate(0 -8.331)">
    <g id="Group_53381" data-name="Group 53381" transform="translate(0 8.331)">
      <path id="Path_94176" data-name="Path 94176" d="M40.693,43.126a4.665,4.665,0,0,0,4.462-3.464l5.163-19.228A1.175,1.175,0,0,0,49.5,19a1.38,1.38,0,0,0-.3-.044H10.36L7.718,9.2A1.161,1.161,0,0,0,6.6,8.331H0v2.335H5.679L8.233,20.2a.81.81,0,0,0,0,.23l5.262,19.294a3.855,3.855,0,0,0,.143.471l1.776,6.468a5.414,5.414,0,1,0,7.3,2.193c-.1-.175-.2-.351-.318-.526h13.78a5.414,5.414,0,1,0,8.419-.548A5.26,5.26,0,0,0,40.671,46H17.748l-.822-3.015A4.446,4.446,0,0,0,18,43.126Zm-.077,5.207A3.113,3.113,0,1,1,37.5,51.447,3.111,3.111,0,0,1,40.616,48.333Zm-22.66,0a3.113,3.113,0,1,1-3.113,3.113A3.109,3.109,0,0,1,17.957,48.333Zm-2.083-9.022-2.62-9.581-2.335-8.419H47.632L42.885,39.136A2.342,2.342,0,0,1,40.66,40.89H17.979A2.365,2.365,0,0,1,15.874,39.311Z" transform="translate(0 -8.331)" fill="#fff"/>
    </g>
  </g>
</svg>
