<svg xmlns="http://www.w3.org/2000/svg" width="126.826" height="66.066" viewBox="0 0 126.826 66.066">
  <path id="Union_27" data-name="Union 27" d="M-1896.729,64.87a19.631,19.631,0,0,0-19.609-19.609h-21.19a19.631,19.631,0,0,0-19.609,19.609,1.2,1.2,0,0,1-1.2,1.2,1.2,1.2,0,0,1-1.2-1.2,22.028,22.028,0,0,1,22-22h21.191a21.822,21.822,0,0,1,8.554,1.731,21.952,21.952,0,0,1,7,4.721,21.98,21.98,0,0,1,4.72,7,21.818,21.818,0,0,1,1.731,8.556,1.2,1.2,0,0,1-1.2,1.2A1.2,1.2,0,0,1-1896.729,64.87ZM-1990,58.96a16.451,16.451,0,0,1,16.431-16.432h15.51a1.2,1.2,0,0,1,1.2,1.2v.024a1.2,1.2,0,0,1-1.2,1.173l-15.511,0a14.053,14.053,0,0,0-14.037,14.037,1.2,1.2,0,0,1-1.2,1.2A1.2,1.2,0,0,1-1990,58.96Zm124.432,0a14.053,14.053,0,0,0-14.037-14.037h-15.512a1.2,1.2,0,0,1-1.2-1.2,1.2,1.2,0,0,1,1.2-1.2h15.512a16.45,16.45,0,0,1,16.431,16.431,1.2,1.2,0,0,1-1.2,1.2A1.2,1.2,0,0,1-1865.568,58.959Zm-60.908-22a18.5,18.5,0,0,1-18.478-18.478A18.5,18.5,0,0,1-1926.476,0,18.5,18.5,0,0,1-1908,18.48a18.314,18.314,0,0,1-1.445,7.162,18.449,18.449,0,0,1-3.942,5.864,18.456,18.456,0,0,1-5.844,3.971,18.316,18.316,0,0,1-7.146,1.48Zm-11.371-29.848a15.979,15.979,0,0,0-4.714,11.37,16.1,16.1,0,0,0,16.085,16.085,16.1,16.1,0,0,0,16.086-16.085,16.1,16.1,0,0,0-16.086-16.086A15.976,15.976,0,0,0-1937.847,7.109Zm40.363,24.94a13.745,13.745,0,0,1-4.061-9.788,13.866,13.866,0,0,1,13.851-13.849,13.865,13.865,0,0,1,13.849,13.849,13.866,13.866,0,0,1-13.849,13.851A13.755,13.755,0,0,1-1897.484,32.049Zm1.689-17.886a11.383,11.383,0,0,0-3.357,8.1,11.471,11.471,0,0,0,11.458,11.458,11.47,11.47,0,0,0,11.456-11.458A11.469,11.469,0,0,0-1887.693,10.8,11.387,11.387,0,0,0-1895.794,14.163Zm-83.536,8.1a13.865,13.865,0,0,1,13.848-13.849,13.866,13.866,0,0,1,13.852,13.849,13.867,13.867,0,0,1-13.852,13.851A13.866,13.866,0,0,1-1979.33,22.261Zm2.393,0a11.47,11.47,0,0,0,11.455,11.458,11.471,11.471,0,0,0,11.459-11.458A11.471,11.471,0,0,0-1965.482,10.8,11.469,11.469,0,0,0-1976.937,22.261Zm83.947,3.432a1.1,1.1,0,0,1,.341-1.517,1.094,1.094,0,0,1,.583-.168,1.1,1.1,0,0,1,.933.508,3.7,3.7,0,0,0,3.161,1.722c.1,0,.192,0,.275-.01h.009a3.726,3.726,0,0,0,2.894-1.846,1.091,1.091,0,0,1,.948-.546,1.113,1.113,0,0,1,.552.148,1.088,1.088,0,0,1,.511.664,1.1,1.1,0,0,1-.112.835,5.909,5.909,0,0,1-4.6,2.932c-.2.015-.363.023-.517.023A5.873,5.873,0,0,1-1892.991,25.692Zm-38.427,0a1.1,1.1,0,0,1,.34-1.517,1.093,1.093,0,0,1,.585-.169,1.1,1.1,0,0,1,.932.508,3.72,3.72,0,0,0,3.181,1.72c.077,0,.161,0,.249-.007h.012a3.722,3.722,0,0,0,2.9-1.845,1.1,1.1,0,0,1,.95-.547,1.114,1.114,0,0,1,.55.148,1.086,1.086,0,0,1,.51.664,1.094,1.094,0,0,1-.111.835,5.916,5.916,0,0,1-4.6,2.932c-.2.015-.363.023-.517.023A5.869,5.869,0,0,1-1931.418,25.692Zm-34.124,2.744a5.864,5.864,0,0,1-4.974-2.744,1.1,1.1,0,0,1,.337-1.517,1.107,1.107,0,0,1,.59-.173,1.088,1.088,0,0,1,.925.509,3.787,3.787,0,0,0,3.186,1.722c.094,0,.175,0,.249-.007h.012a3.708,3.708,0,0,0,2.892-1.843,1.1,1.1,0,0,1,.95-.551,1.1,1.1,0,0,1,.548.148,1.093,1.093,0,0,1,.513.666,1.089,1.089,0,0,1-.108.834,5.9,5.9,0,0,1-4.6,2.934c-.185.015-.344.023-.486.023Z" transform="translate(1990)" fill="#08558c"/>
</svg>
